<svg xmlns="http://www.w3.org/2000/svg" viewBox="0 0 512 512">
  <rect width="512" height="512" rx="115" fill="#2563eb"/>
  <g transform="translate(96, 96) scale(13.333)">
    <path d="M3.6 15.2l1.5-3.9A2.5 2.5 0 0 1 7.4 9.6h7.2a2.5 2.5 0 0 1 2.3 1.6l1.5 3.9" stroke="#fff" stroke-width="1.7" stroke-linecap="round" stroke-linejoin="round" fill="none"/>
    <path d="M3 15.2h16v2a1 1 0 0 1-1 1h-.3a1 1 0 0 1-1-1v-.2H5.3v.2a1 1 0 0 1-1 1H4a1 1 0 0 1-1-1v-2z" stroke="#fff" stroke-width="1.7" stroke-linejoin="round" fill="none"/>
    <circle cx="7.3" cy="16.1" r="1.3" fill="#2563eb" stroke="#fff" stroke-width="1.2"/>
    <circle cx="14.7" cy="16.1" r="1.3" fill="#2563eb" stroke="#fff" stroke-width="1.2"/>
    <path d="M19.4 4.2C19.6 5.9 20.1 6.4 21.8 6.6C20.1 6.8 19.6 7.3 19.4 9C19.2 7.3 18.7 6.8 17 6.6C18.7 6.4 19.2 5.9 19.4 4.2Z" fill="#fff"/>
  </g>
</svg>
